<svg version="1.1" viewBox="0 0 606.67 356.71" xml:space="preserve" xmlns="http://www.w3.org/2000/svg"><defs><clipPath id="clipPath22"><path d="m0 500h500v-500h-500z"/></clipPath><clipPath id="clipPath48"><path d="m0 500h500v-500h-500z"/></clipPath></defs><g transform="matrix(1.3333 0 0 -1.3333 -26 435.38)"><g fill="#ccc"><g clip-path="url(#clipPath22)" fill="#ccc"><g transform="translate(474.5,89)" fill="#ccc"><path d="m0 0c0-16.568-101.86-30-227.5-30s-227.5 13.432-227.5 30 101.86 30 227.5 30 227.5-13.432 227.5-30" fill="#ccc"/></g></g></g><g clip-path="url(#clipPath48)"><g transform="translate(412.4 191.16)"><path d="m0 0c1.018 1.044 1.584 2.409 1.172 3.917-0.477 1.739-2.216 2.564-3.917 2.242-1.714-0.309-2.886-1.675-2.771-3.44 0.039-0.786 0.349-1.585 0.826-2.216 0.179-0.232 0.94-1.031 1.533-1.237h0.012c0.194 0.025 0.374 0.064 0.568 0.089 0.141 0.168 0.348 0.168 0.528 0.091 0.695 0.142 1.378 0.323 2.049 0.554m36.465-68.601c0.824 10.837 3.568 21.829 2.898 32.704-9.65 1.97-21.943 5.862-28.179-3.944-3.891-6.107-6.803-13.04-8.994-19.907-4.561-14.277-5.025-28.734-4.007-43.552 0.012-0.168-0.038-0.284-0.129-0.387 4.742-0.116 8.195 0.348 9.651 5.76 0.695 2.615 0.052 6.275 0.052 9.007 0 3.647-0.915 8.105 0.889 11.403-0.104 0.335 0.012 0.747 0.438 0.837 0.038 0.014 0.09 0.027 0.128 0.039 0.052 0.052 0.078 0.103 0.116 0.155 0.361 0.451 0.876 0.399 1.263 0.129 4.574 0.85 13.465 1.701 15.798-2.037 1.623-2.615 0.347-7.884 0.27-10.771-0.116-4.845-0.22-9.689-0.387-14.534 0-0.065-0.026-0.104-0.039-0.168 3.441-0.773 6.752-0.773 9.999 0.696-0.669 11.519-0.657 23.051 0.233 34.57m9.831 57.121c0.58 11.016-10.927 12.859-19.366 13.683-0.181 0.014-0.335 0.065-0.464 0.142-6.392-1.907-10.631-7.151-11.867-13.903-1.83-10.011 7.099-15.977 16.273-15.255 7.977 0.618 14.985 7.189 15.424 15.333m3.299-73.433c1.494 0.245 2.706 1.469 2.551 3.054-0.181 1.688-1.328 2.345-2.642 3.028-0.309-0.065-0.644 0-0.876 0.193-1.521-0.515-2.744-1.791-2.59-3.53 0.154-1.855 1.752-3.055 3.557-2.745m0.721 7.821c2.306-0.283 3.93-3.17 3.814-5.321-0.129-2.552-2.345-4.356-4.806-4.523-2.783-0.18-5.102 1.985-5.219 4.768-0.116 2.538 1.779 4.6 4.175 4.922-0.039 10.888 3.106 28.128-6.494 35.46 0.296-8.453-2.267-17.627-2.912-25.565-0.992-12.112-1.031-24.237-0.31-36.361 0.04-0.606-0.322-0.941-0.759-1.057-0.039-0.026-0.065-0.064-0.117-0.09-3.891-1.881-8.452-2.255-12.382-0.245-0.18 0.09-0.284 0.219-0.335 0.374-0.477 0.064-0.902 0.399-0.902 1.031 0.103 6.223 0.296 12.46 0.464 18.683 0.142 5.18-0.928 6.391-6.327 6.855-2.448 0.219-4.909 0.168-7.37 0.168-2.203-4.033-0.734-11.804-0.824-16.314-0.039-2.511 0.154-5.346-1.121-7.628-2.269-4.058-7.229-3.761-11.198-2.95-0.503 0.09-0.541 0.696-0.27 1.018-0.194 0.039-0.361 0.168-0.413 0.399-3.749 17.46-0.76 36.465 6.121 52.778 2.049 4.858 4.806 12.37 9.29 16.532-4.768 2.113-7.719 8.362-10.038 12.589-3.183 5.81-5.759 12.356-4.535 19.044 0.012 0.103 0.051 0.168 0.089 0.245-0.489-0.091-0.978-0.168-1.481-0.22-15.037-1.521-15.99 16.274-12.949 26.608 0.025 0.078 0.064 0.155 0.102 0.219 0.387 0.516 1.418 0.233 1.328-0.502-0.644-4.832-2.049-9.599-1.043-14.509 1.133-5.541 4.909-9.703 10.333-10.128-0.477 0.49-0.85 1.057-1.121 1.688-1.083 2.539-0.142 5.464 2.397 6.662 2.486 1.173 5.695 0.412 7.009-2.088 0.657-1.25 0.748-2.796 0.348-4.175 3.183 1.818 5.605 4.755 6.133 8.66 0.709 5.283-1.855 10.153-4.226 14.663-0.193 0.361-0.038 0.644 0.219 0.786-0.103 0.476 0.18 1.095 0.825 1.121 8.066 0.335 16.183 1.082 24.25 1.082 0.116 0 0.206-0.038 0.27-0.09l0.193-0.297c0.065-0.27-0.051-0.592-0.374-0.643-7.898-1.276-16.08-1.495-24.056-1.727 3.544-5.476 6.34-12.254 3.634-18.71-1.585-3.788-5.128-6.365-9.02-7.679-0.025-0.013-0.038-0.039-0.064-0.051-0.129-0.065-0.245-0.077-0.373-0.077-0.414-0.129-0.813-0.258-1.225-0.362 0.258-0.141 0.451-0.373 0.464-0.695 0.503-9.897 5.219-24.354 14.032-30.474 0.722 0.554 1.494 1.005 2.307 1.353 2.731 1.16 6.132 1.314 9.676 0.979 0.065 0.722 0.245 1.444 0.529 2.101-7.126 1.185-13.814 5.914-14.033 13.658-0.232 8.633 5.334 17.563 13.916 18.992 0.142 0.362 0.464 0.632 0.993 0.58 10.011-0.85 22.226-3.427 21.646-15.925-0.412-9.007-7.936-16.455-16.737-17.473-1.302-0.154-2.642-0.154-3.994-0.051-0.233-0.451-0.464-0.89-0.658-1.353-0.09-0.232-0.155-0.452-0.219-0.683 4.767-0.606 9.626-1.972 13.259-2.874 0.734-0.18 0.877-0.863 0.644-1.391 0.439-1.598 0.683-3.234 0.825-4.91 0.065-0.013 0.142-0.025 0.206-0.064 5.257-2.68 7.409-7.641 8.118-13.297 0.966-7.654 0.425-15.784 0.296-23.516" fill="#1c1c1b"/></g><g transform="translate(464.55 109.3)"><path d="m0 0c0.155-1.585-1.057-2.809-2.551-3.054-1.804-0.309-3.402 0.89-3.556 2.745-0.155 1.74 1.069 3.015 2.589 3.531 0.233-0.194 0.568-0.258 0.876-0.194 1.315-0.682 2.461-1.34 2.642-3.028" fill="#f5f5f5"/></g><g transform="translate(455.78 182.55)"><path d="m0 0c0.181-0.812-1.083-1.159-1.263-0.335-0.412 1.92-1.791 3.492-3.698 4.046-0.593 0.181-0.348 1.057 0.258 0.928 2.345-0.477 4.2-2.293 4.703-4.639" fill="#1c1c1b"/></g><g transform="translate(455.25 187.15)"><path d="m0 0c0.593-0.619-0.335-1.56-0.928-0.941-1.379 1.418-3.118 2.383-5.102 2.628-0.568 0.065-0.606 0.928 0 0.916 2.319-0.052 4.432-0.928 6.03-2.603" fill="#1c1c1b"/></g><g transform="translate(444.95 246.41)"><path d="m0 0c0.45-9.071-0.116-18.465-0.632-27.536-0.052-0.799-0.953-0.928-1.391-0.516l-0.194 0.297c-0.025 0.09-0.052 0.193-0.052 0.31 0.052 8.71 0.091 17.716 1.019 26.414-9.329-6.713-22.665-0.593-23.761 10.978-0.541 5.734 1.791 11.764 6.469 15.23 5.128 3.814 11.506 2.68 16.519-0.618-0.348 8.233-0.078 16.815 0.824 24.997-10.36-0.722-21.698-1.005-31.839 1.456-0.077 0.026-0.129 0.051-0.181 0.09-0.695-0.27-1.597 0.49-1.043 1.237 6.159 8.363 7.551 26.325-6.907 26.041-2.602-0.039-6.391-0.438-8.31-2.526-2.397-2.577-2.655-6.197-2.513-9.521 0.245-5.464 1.946-10.683 4.252-15.604 0.18-0.4-0.065-0.735-0.387-0.812-0.025-0.335-0.206-0.67-0.592-0.722-9.805-1.507-20.797-1.662-30.577 0.193 0.863-9.548 0.477-19.302 1.134-28.888 5.064 3.608 11.339 6.739 17.691 4.832 4.961-1.495 8.157-6.069 8.698-11.133 0.683-6.417-3.002-13.22-8.105-16.982-5.463-4.033-11.648-2.797-17.446-0.297 0.077-8.504 0.025-16.982 0.283-25.486 0-0.014-0.013-0.027-0.013-0.027 9.239-0.876 17.808-1.662 27.123-0.953 0.709 0.052 0.941-0.85 0.593-1.327-0.102-0.154-0.258-0.258-0.464-0.283-9.045-1.186-19.044-1.148-27.844 1.507-0.194 0.064-0.296 0.206-0.335 0.374-0.348 0.077-0.683 0.347-0.709 0.798-0.619 8.775-0.786 17.821-0.013 26.595 0.013 0.104 0.039 0.194 0.077 0.271 0.143 0.27 0.438 0.374 0.722 0.335 0.18 0.103 0.412 0.142 0.683 0.026 5.85-2.59 12.061-3.892 17.318 0.683 3.736 3.247 6.584 8.401 6.481 13.439-0.103 5.592-3.853 10.553-9.548 11.236-5.425 0.657-10.334-2.358-14.934-4.781-0.323-0.167-0.658 0.052-0.773 0.322-0.27-0.09-0.606-0.051-0.838 0.103-0.154 0.103-0.257 0.258-0.283 0.477-1.044 9.432-2.075 19.869-0.683 29.275 0.039 0.258 0.257 0.438 0.49 0.516 0.038 0.309 0.283 0.644 0.643 0.631 10.18-0.232 20.05-0.463 30.243 0.064-3.596 6.185-5.941 14.496-4.202 21.583 1.444 5.824 6.714 7.744 12.242 7.822 15.32 0.206 15.333-18.272 8.697-28.077 10.527-0.232 20.848-1.302 31.427-0.786 0.413 0.026 0.644-0.206 0.721-0.49 0.129-0.103 0.22-0.245 0.22-0.451 0.192-8.955 0.025-18.129-0.438-27.071-0.052-0.89-1.173-0.89-1.469-0.22-5.579 2.912-11.945 4.536-17.009-0.425-3.53-3.453-5.051-8.736-4.239-13.568 1.662-9.973 13.684-14.625 21.544-8.195 0.528 0.451 1.185 0.103 1.379-0.387 0.128-0.102 0.218-0.244 0.232-0.45" fill="#1c1c1b"/></g><g transform="translate(368.9 277.75)"><path d="m0 0c0.155 1.662 0.451 3.672 0.077 5.296-0.115 0.502-0.901 0.515-1.017 0-0.374-1.624-0.065-3.634 0.077-5.296 0.051-0.554 0.825-0.554 0.863 0m3.067 5.18c0.078 0.618-0.748 0.67-1.031 0.283-0.747-1.005-0.58-2.718-0.27-3.853 0.116-0.45 0.901-0.386 0.85 0.117-0.064 0.618-0.064 1.236 0.051 1.842 0.104 0.554 0.336 1.056 0.4 1.611m36.994 32.715c0.385-0.322 0.927-0.013 0.824 0.49-0.155 0.824-0.889 1.585-1.469 2.164-0.645 0.645-1.366 1.212-2.178 1.624-0.618 0.322-1.108-0.528-0.541-0.915 0.683-0.451 1.327-0.941 1.881-1.533 0.528-0.567 0.902-1.328 1.483-1.83m0.424 3.453c0.271-0.257 0.786-0.077 0.76 0.322-0.128 2.513-3.839 3.518-5.785 2.771-0.58-0.219-0.36-1.121 0.258-0.954 0.967 0.271 1.984 0.194 2.886-0.27 0.864-0.464 1.211-1.212 1.881-1.869m23.941-44.119c0.657 0.014 0.863 1.07 0.155 1.199-2.127 0.361-4.626-0.206-6.494-1.276-0.478-0.27-0.168-1.108 0.386-0.915 0.927 0.323 1.817 0.658 2.783 0.825 1.057 0.181 2.1 0.129 3.17 0.167m0.283 1.379c0.619-0.257 0.979 0.722 0.438 1.044-1.314 0.799-3.118 0.747-4.445 0.013-0.451-0.258-0.154-1.018 0.361-0.863 1.314 0.425 2.371 0.309 3.646-0.194m1.56-55.303c0.489 0.154 0.424 0.953-0.129 0.941-2.307-0.09-4.536-0.644-6.869-0.619-0.412 0.013-0.412-0.605 0-0.631 2.205-0.167 4.859-0.373 6.998 0.309m1.159 2.01c0.735 0.039 0.735 1.108 0 1.135-1.675 0.077-3.479 0.025-5.154-0.143-0.541-0.051-0.541-0.785 0-0.837 1.675-0.18 3.479-0.232 5.154-0.155m7.422 72.904c-0.902-8.181-1.172-16.763-0.825-24.997-5.012 3.299-11.39 4.433-16.518 0.619-4.678-3.466-7.01-9.497-6.469-15.231 1.096-11.57 14.432-17.691 23.761-10.978-0.928-8.697-0.967-17.704-1.019-26.414 0-0.116 0.027-0.219 0.052-0.309-0.064 0.051-0.154 0.09-0.27 0.09-8.067 0-16.184-0.748-24.25-1.082-0.645-0.026-0.928-0.645-0.825-1.122-0.258-0.141-0.412-0.424-0.219-0.786 2.371-4.509 4.935-9.38 4.226-14.663-0.528-3.904-2.95-6.842-6.133-8.659 0.4 1.379 0.309 2.925-0.348 4.175-1.314 2.5-4.523 3.261-7.009 2.088-2.539-1.199-3.48-4.123-2.397-6.662 0.271-0.631 0.644-1.199 1.121-1.688-5.424 0.425-9.2 4.587-10.333 10.128-1.006 4.909 0.399 9.677 1.042 14.509 0.091 0.734-0.94 1.017-1.327 0.502l-0.399 0.052c0.348 0.476 0.116 1.378-0.593 1.327-9.315-0.709-17.885 0.077-27.123 0.953 0 0 0.013 0.012 0.013 0.026-0.258 8.504-0.206 16.983-0.283 25.486 5.797-2.5 11.983-3.736 17.446 0.297 5.102 3.762 8.788 10.566 8.104 16.983-0.541 5.063-3.736 9.638-8.697 11.133-6.352 1.906-12.627-1.225-17.691-4.832-0.658 9.586-0.271 19.34-1.134 28.888 9.78-1.856 20.771-1.701 30.577-0.193 0.386 0.051 0.566 0.386 0.592 0.721 0.322 0.078 0.567 0.413 0.387 0.812-2.306 4.922-4.007 10.141-4.252 15.604-0.142 3.324 0.116 6.945 2.512 9.522 1.92 2.087 5.708 2.487 8.311 2.525 14.458 0.284 13.066-17.678 6.907-26.041-0.555-0.747 0.348-1.507 1.043-1.236 0.052-0.039 0.104-0.065 0.181-0.091 10.14-2.461 21.479-2.177 31.839-1.456" fill="#f9ca54"/></g><g transform="translate(436.33 224.2)"><path d="m0 0c0.735-0.026 0.735-1.096 0-1.135-1.675-0.077-3.479-0.025-5.153 0.156-0.541 0.051-0.541 0.786 0 0.836 1.674 0.168 3.478 0.22 5.153 0.143" fill="#1c1c1b"/></g><g transform="translate(435.04 221.99)"><path d="m0 0c0.554 0.013 0.618-0.786 0.129-0.94-2.139-0.683-4.793-0.477-6.997-0.31-0.412 0.026-0.412 0.645 0 0.632 2.333-0.026 4.561 0.528 6.868 0.618" fill="#1c1c1b"/></g><g transform="translate(434.05 277.4)"><path d="m0 0c0.541-0.322 0.181-1.301-0.438-1.043-1.276 0.502-2.333 0.618-3.647 0.193-0.515-0.155-0.811 0.605-0.36 0.863 1.327 0.735 3.131 0.786 4.445-0.013" fill="#1c1c1b"/></g><g transform="translate(433.48 276.17)"><path d="m0 0c0.708-0.129 0.502-1.185-0.155-1.198-1.07-0.039-2.114 0.013-3.17-0.168-0.966-0.167-1.856-0.502-2.783-0.824-0.554-0.194-0.864 0.644-0.386 0.915 1.868 1.069 4.367 1.636 6.494 1.275" fill="#1c1c1b"/></g><g transform="translate(412.49 96.504)"><path d="m0 0c-0.013 0.825 1.314 0.825 1.301 0-0.038-1.727-0.142-3.44-0.257-5.154-0.039-0.502-0.748-0.502-0.786 0-0.116 1.714-0.233 3.427-0.258 5.154" fill="#1c1c1b"/></g><g transform="translate(413.58 195.08)"><path d="m0 0c0.412-1.508-0.154-2.873-1.172-3.917-0.671-0.231-1.353-0.412-2.049-0.554-0.18 0.077-0.386 0.077-0.528-0.091-0.193-0.025-0.374-0.064-0.567-0.089h-0.013c-0.593 0.206-1.354 1.005-1.533 1.237-0.477 0.631-0.786 1.43-0.825 2.216-0.116 1.765 1.056 3.131 2.77 3.44 1.701 0.322 3.44-0.503 3.917-2.242" fill="#f5f5f5"/></g><g transform="translate(412.17 89.714)"><path d="m0 0c0.129-0.412-0.477-0.657-0.67-0.284-0.89 1.649-1.379 3.646-1.096 5.515 0.117 0.708 1.238 0.515 1.225-0.168-0.039-1.778 0.013-3.349 0.541-5.063" fill="#1c1c1b"/></g><g transform="translate(410.15 319.42)"><path d="m0 0c0.026-0.399-0.489-0.58-0.76-0.322-0.67 0.657-1.017 1.405-1.881 1.868-0.902 0.464-1.92 0.541-2.886 0.271-0.619-0.168-0.838 0.734-0.258 0.954 1.946 0.747 5.657-0.258 5.785-2.771" fill="#1c1c1b"/></g><g transform="translate(409.79 316.13)"><path d="m0 0c0.104-0.502-0.438-0.812-0.824-0.49-0.58 0.503-0.954 1.263-1.483 1.83-0.553 0.593-1.198 1.082-1.88 1.534-0.568 0.386-0.078 1.236 0.541 0.914 0.811-0.412 1.533-0.979 2.177-1.623 0.58-0.58 1.315-1.34 1.469-2.165" fill="#1c1c1b"/></g><g transform="translate(370.94 283.21)"><path d="m0 0c0.283 0.386 1.108 0.335 1.031-0.284-0.064-0.554-0.297-1.056-0.4-1.611-0.115-0.605-0.115-1.223-0.051-1.842 0.051-0.502-0.734-0.567-0.851-0.116-0.309 1.134-0.476 2.848 0.271 3.853" fill="#1c1c1b"/></g><g transform="translate(368.98 283.04)"><path d="m0 0c0.374-1.624 0.078-3.634-0.077-5.296-0.038-0.554-0.812-0.554-0.863 0-0.142 1.662-0.452 3.672-0.078 5.296 0.117 0.515 0.903 0.502 1.018 0" fill="#1c1c1b"/></g><g transform="translate(240.23 239.67)"><path d="m0 0c0.399-8.852-0.154-18-0.657-26.84-0.051-0.785-0.953-0.928-1.392-0.502l-0.193 0.283c-0.026 0.091-0.051 0.194-0.051 0.31 0.051 8.723 0.09 17.729 1.018 26.414l0.296 0.67c0.309-0.142 0.644-0.244 0.979-0.335" fill="#1c1c1b"/></g><g transform="translate(240.21 290.7)"><path d="m0 0c0.193-8.955 0.026-18.142-0.438-27.084 0-0.116-0.026-0.22-0.064-0.297l-0.013-0.013c-0.258-0.116-0.516-0.231-0.773-0.374-0.258 0.039-0.503 0.207-0.619 0.464-5.579 2.912-11.944 4.536-17.008-0.425-3.531-3.453-5.051-8.736-4.239-13.568 1.61-9.677 12.988-14.341 20.835-8.723 0.425-0.257 0.876-0.49 1.366-0.67l-0.297-0.67c-9.315-6.701-22.665-0.593-23.76 10.991-0.541 5.721 1.791 11.751 6.468 15.217 5.129 3.814 11.507 2.68 16.519-0.618-0.348 8.233-0.077 16.815 0.825 24.997-10.347-0.722-21.698-0.992-31.839 1.469-0.065 0.013-0.129 0.038-0.168 0.077-0.709-0.271-1.61 0.49-1.056 1.237 6.159 8.363 7.551 26.324-6.907 26.054-2.603-0.052-6.391-0.451-8.311-2.539-2.396-2.576-2.654-6.184-2.512-9.509 0.244-5.476 1.945-10.682 4.252-15.617 0.18-0.399-0.065-0.721-0.387-0.811-0.025-0.335-0.206-0.657-0.58-0.722-9.818-1.494-20.809-1.662-30.589 0.194 0.876-9.548 0.477-19.303 1.134-28.889 5.077 3.608 11.352 6.739 17.691 4.832 4.961-1.495 8.157-6.069 8.698-11.133 0.683-6.417-3.002-13.22-8.105-16.982-5.463-4.034-11.635-2.796-17.447-0.297 0.078-8.504 0.026-16.983 0.284-25.487v-0.025c9.226-0.864 17.807-1.663 27.123-0.954 0.696 0.052 0.928-0.851 0.593-1.327-0.103-0.154-0.271-0.258-0.477-0.283-9.045-1.186-19.044-1.147-27.832 1.507-0.206 0.065-0.309 0.207-0.347 0.374-0.349 0.077-0.684 0.347-0.709 0.798-0.619 8.776-0.786 17.833 0 26.595 0.013 0.104 0.038 0.193 0.077 0.272 0.129 0.283 0.425 0.385 0.709 0.335 0.18 0.115 0.412 0.141 0.683 0.025 5.849-2.577 12.073-3.892 17.317 0.683 3.737 3.247 6.585 8.414 6.482 13.439-0.103 5.592-3.853 10.553-9.536 11.236-5.437 0.657-10.346-2.358-14.934-4.78-0.335-0.168-0.656 0.051-0.785 0.334-0.284-0.09-0.619-0.064-0.838 0.104-0.154 0.103-0.257 0.257-0.283 0.463-1.031 9.433-2.075 19.87-0.683 29.275 0.038 0.271 0.257 0.451 0.489 0.516 0.039 0.322 0.284 0.644 0.644 0.631 10.193-0.232 20.05-0.464 30.242 0.065-3.595 6.185-5.94 14.495-4.187 21.582 1.43 5.837 6.7 7.744 12.227 7.822 15.321 0.206 15.334-18.259 8.711-28.064 10.527-0.245 20.835-1.314 31.414-0.799 0.412 0.026 0.644-0.206 0.734-0.49 0.116-0.103 0.206-0.245 0.206-0.438" fill="#1c1c1b"/></g><g transform="translate(150.62 114.49)"><path d="m0 0c1.534 0.425 3.015 1.598 2.951 3.324-0.052 1.366-0.889 2.5-2.255 2.706-0.258 0.038-0.425 0.155-0.541 0.31-0.322-0.104-0.67-0.091-0.928 0.09 0.09-0.245 0.039-0.541-0.232-0.697-1.417-0.863-3.26-1.932-3.35-3.8-0.103-2.268 2.745-2.371 4.355-1.933m25.667 48.731c8.427 1.057 16.867 8.621 15.437 17.769-0.528 3.453-2.5 7.177-4.819 9.845-3.853 4.432-9.304 4.148-14.548 2.847-0.244-0.051-0.464-0.013-0.657 0.051-8.259-2.074-15.707-10.32-13.426-19.211 2.087-8.105 10.076-12.305 18.013-11.301m24.225-75.893c0.386 11.48 0.45 23.013-0.864 34.455-1.52 13.091-5.463 24.662-10.785 36.619-6.623-1.057-17.343-1.61-21.209-7.486-3.814-5.785-2.049-16.003-2.074-22.807-0.026-13.929 0.296-28.308-2.977-41.954 2.616 0 5.683-0.321 8.144 0.349 3.878 1.056 4.02 4.651 4.226 8.052 0.322 5.219 0.413 10.424 0.374 15.643 0 0.528 0.296 0.851 0.657 1.005 0.013 0.387 0.206 0.761 0.657 0.85 4.084 0.876 8.259 1.367 12.396 1.959 0.734 0.103 1.25-0.425 1.391-0.992 0.168-0.064 0.322-0.206 0.361-0.451 1.636-8.156 1.095-16.725 0.051-24.933 3.209-0.334 6.405-0.425 9.652-0.309m6.403 97.554c0.644 1.468 1.353 3.079 0.361 4.547-0.747 1.096-2.319 1.444-3.531 1.096-3.504-0.979-1.494-5.527 1.263-5.966 0.078-0.012 0.129-0.039 0.194-0.064 0.58 0.103 1.147 0.232 1.713 0.387m31.272 27.445c0.065-0.271-0.051-0.593-0.373-0.645-7.899-1.288-16.068-1.507-24.057-1.726 3.544-5.489 6.34-12.267 3.647-18.709-1.598-3.801-5.154-6.392-9.058-7.705-0.129-0.156-0.245-0.323-0.387-0.464-0.309-0.322-0.773-0.284-1.108-0.078 4.922-11.404 1.714-30.035-10.553-35.331 7.628-19.005 7.164-41.98 6.468-61.552-0.025-0.94-0.979-1.275-1.649-1.018-0.052-0.013-0.09-0.039-0.155-0.039-3.826-0.18-7.576-0.039-11.377 0.4-0.554 0.064-1.237 0.489-1.147 1.146 1.121 8.427 0.838 16.699 0.953 25.153-3.917-0.541-7.847-1.161-11.776-1.483 0-0.025 0.012-0.051 0.012-0.077 0.091-4.291 0.026-8.594-0.193-12.885-0.168-3.002 0.245-7.113-1.108-9.922-2.268-4.741-10.566-3.182-14.457-2.693-0.631 0.078-0.838 0.748-0.58 1.147 1.766 19.019 1.727 37.805 2.139 56.875 0.026 1.301 0.065 2.628 0.206 3.917-7.074-3.736-12.254-16.647-12.189-24.198 0.116 0.026 0.258 0.038 0.399 0.013 2.448-0.36 3.892-2.86 3.672-5.205-0.231-2.616-2.602-4.356-5.038-4.781-2.435-0.425-5.798 0.284-6.081 3.221-0.297 2.977 2.319 4.703 4.78 5.579 0.168 0.065 0.309 0.039 0.425-0.025-0.039 0.064-0.077 0.129-0.09 0.219-0.85 5.656 1.714 11.442 4.368 16.351 2.139 3.943 5.167 9.38 9.96 10.385 0.477 2.745 1.572 5.245 4.175 6.945 2.771 1.804 6.236 3.016 9.832 3.827-0.246 0.375-0.452 0.76-0.67 1.16-0.142 0.271-0.284 0.528-0.413 0.786h-0.013c-9.715-1.315-19.495 4.587-21.028 14.663-1.34 8.813 6.288 19.122 15.359 19.753 0.129 0.232 0.348 0.426 0.683 0.515 4.613 1.199 10.45 2.191 14.534-0.901 1.894-1.443 3.673-3.685 5.064-6.159 1.392-2.475 2.397-5.167 2.732-7.486 1.391-9.639-6.675-18.001-15.591-20.063 0.296-0.631 0.528-1.327 0.708-1.933 0.013-0.012 0.013-0.039 0.013-0.064 3.337 0.657 6.713 1.018 9.69 1.173 0.464 0.025 0.773-0.271 0.902-0.645 0.064-0.051 0.129-0.103 0.193-0.18 2.255-3.312 4.149-6.842 5.721-10.514 10.862 6.442 13.04 22.252 9.084 33.501-0.013 0.052 0 0.09-0.013 0.129-0.232-0.026-0.451-0.065-0.67-0.077-6.352-0.645-10.192 2.164-12.28 6.39-2.86 5.786-2.435 14.239-0.682 20.204 0.026 0.078 0.064 0.155 0.103 0.219 0.387 0.516 1.417 0.233 1.327-0.489-0.644-4.845-2.049-9.612-1.044-14.522 1.108-5.412 4.742-9.509 9.973-10.088-2.267 2.164-2.306 6.712 1.224 8.04 2.049 0.773 4.652 0.206 6.031-1.56 1.044-1.365 1.185-3.26 0.721-4.96 3.685 1.752 6.572 4.87 7.152 9.187 0.708 5.283-1.856 10.153-4.227 14.676-0.193 0.348-0.039 0.644 0.219 0.773-0.103 0.476 0.194 1.096 0.825 1.121 8.066 0.335 16.184 1.083 24.25 1.083 0.116 0 0.206-0.039 0.271-0.091z" fill="#1c1c1b"/></g><g transform="translate(179.88 233.53)"><path d="m0 0c0.425 0.348-0.039 1.134-0.541 0.94-1.25-0.49-2.358-1.211-3.646-1.624-1.418-0.45-2.874-0.67-4.355-0.759-0.49-0.027-0.503-0.735 0-0.761 2.782-0.129 6.313 0.399 8.542 2.204m1.314-2.178c0.529 0.606-0.309 1.469-0.901 0.889-1.238-1.211-2.487-1.791-4.24-1.765-0.477 0-0.605-0.773-0.116-0.863 1.843-0.349 4.007 0.296 5.257 1.739m10.85 80.596c0.18 0.581-0.541 0.89-0.954 0.542-1.662-1.405-1.984-4.613-1.211-6.52 0.168-0.412 0.812-0.399 0.812 0.103 0.013 1.069-0.013 2.1 0.257 3.157 0.258 0.953 0.799 1.778 1.096 2.718m1.933-1.275c0.605 0.335 0.193 1.275-0.464 1.108-1.327-0.361-2.333-1.662-2.551-2.989-0.104-0.644 0.785-0.915 0.992-0.271 0.347 1.057 1.082 1.65 2.023 2.152m17.214-111.43c0.296-0.593 1.327-0.167 1.083 0.464-0.632 1.636-1.495 3.234-2.281 4.806-0.206 0.425-0.941 0.129-0.774-0.322 0.619-1.637 1.199-3.363 1.972-4.948m2.255 2.217c0.348-0.503 1.275-0.206 1.043 0.425-0.747 2.1-1.997 4.213-3.195 6.082-0.27 0.424-1.043 0.154-0.837-0.361 0.798-2.049 1.752-4.317 2.989-6.146m15.862 85.067c0.605 0.026 0.811 0.98 0.154 1.121-2.1 0.425-4.445 0.425-6.584 0.49-0.567 0.013-0.722-0.94-0.142-1.018 2.113-0.283 4.445-0.683 6.572-0.593m1.288-2.061c0.799 0.077 0.812 1.327 0 1.262-1.894-0.167-3.801-0.45-5.695-0.734-0.49-0.065-0.374-0.876 0.116-0.863 1.855 0.09 3.737 0.154 5.579 0.335m8.414 5.463c-0.902-8.182-1.172-16.764-0.825-24.997-5.012 3.298-11.39 4.432-16.518 0.618-4.678-3.466-7.01-9.496-6.469-15.217 1.096-11.584 14.445-17.692 23.761-10.991-0.928-8.685-0.967-17.692-1.018-26.415 0-0.116 0.025-0.218 0.051-0.309-0.064 0.052-0.154 0.091-0.271 0.091-8.066 0-16.183-0.748-24.249-1.083-0.632-0.026-0.928-0.645-0.825-1.121-0.258-0.129-0.413-0.425-0.219-0.773 2.371-4.523 4.935-9.393 4.226-14.677-0.58-4.316-3.466-7.434-7.151-9.186 0.464 1.7 0.322 3.595-0.722 4.96-1.378 1.765-3.981 2.333-6.03 1.559-3.53-1.327-3.492-5.876-1.224-8.04-5.231 0.579-8.865 4.677-9.973 10.089-1.005 4.909 0.4 9.677 1.044 14.522 0.09 0.721-0.941 1.005-1.327 0.489l-0.387 0.052c0.335 0.476 0.103 1.379-0.593 1.327-9.316-0.709-17.897 0.09-27.123 0.954v0.025c-0.258 8.504-0.206 16.983-0.284 25.487 5.812-2.499 11.984-3.737 17.447 0.297 5.103 3.762 8.788 10.565 8.105 16.982-0.541 5.064-3.737 9.638-8.698 11.133-6.339 1.907-12.614-1.224-17.691-4.832-0.657 9.586-0.258 19.341-1.134 28.888 9.78-1.855 20.771-1.688 30.59-0.193 0.373 0.065 0.554 0.387 0.579 0.722 0.322 0.09 0.568 0.412 0.387 0.811-2.307 4.935-4.007 10.141-4.252 15.617-0.142 3.325 0.116 6.933 2.513 9.509 1.92 2.088 5.708 2.487 8.31 2.539 14.458 0.27 13.066-17.692 6.907-26.054-0.554-0.747 0.348-1.508 1.057-1.237 0.038-0.039 0.103-0.064 0.167-0.077 10.141-2.461 21.492-2.191 31.839-1.469" fill="#6bc6e1"/></g><g transform="translate(230.59 285.72)"><path d="m0 0c0.812 0.064 0.799-1.186 0-1.263-1.842-0.18-3.724-0.244-5.579-0.335-0.49-0.012-0.606 0.799-0.116 0.864 1.894 0.283 3.801 0.567 5.695 0.734" fill="#1c1c1b"/></g><g transform="translate(229.46 287.64)"><path d="m0 0c0.657-0.142 0.451-1.095-0.154-1.121-2.127-0.09-4.459 0.309-6.572 0.593-0.58 0.077-0.425 1.03 0.142 1.018 2.139-0.065 4.484-0.065 6.584-0.49" fill="#1c1c1b"/></g><g transform="translate(214.49 201.88)"><path d="m0 0c0.232-0.631-0.696-0.928-1.043-0.425-1.237 1.829-2.191 4.098-2.99 6.147-0.206 0.514 0.567 0.785 0.838 0.36 1.198-1.868 2.448-3.981 3.195-6.082" fill="#1c1c1b"/></g><g transform="translate(212.27 199.7)"><path d="m0 0c0.245-0.631-0.786-1.057-1.083-0.464-0.772 1.585-1.353 3.312-1.971 4.948-0.168 0.452 0.567 0.747 0.773 0.323 0.786-1.573 1.65-3.17 2.281-4.807" fill="#1c1c1b"/></g><g transform="translate(207.27 189.43)"><path d="m0 0c0.992-1.469 0.283-3.079-0.361-4.548-0.567-0.154-1.134-0.283-1.714-0.387-0.064 0.026-0.115 0.052-0.193 0.065-2.757 0.438-4.767 4.986-1.263 5.966 1.212 0.347 2.783 0 3.531-1.096" fill="#f5f5f5"/></g><g transform="translate(193.51 311.78)"><path d="m0 0c0.657 0.167 1.069-0.773 0.464-1.108-0.941-0.502-1.675-1.095-2.023-2.152-0.207-0.644-1.096-0.373-0.992 0.271 0.218 1.327 1.224 2.628 2.551 2.989" fill="#1c1c1b"/></g><g transform="translate(193.03 143.88)"><path d="m0 0c0.193-0.772-0.94-1.082-1.186-0.322-0.347 1.031-0.656 2.01-1.236 2.938s-1.379 1.636-2.062 2.487c-0.103 0.128-0.013 0.412 0.193 0.334 2.062-0.811 3.789-3.336 4.291-5.437" fill="#1c1c1b"/></g><g transform="translate(191.09 312.49)"><path d="m0 0c0.413 0.348 1.134 0.039 0.954-0.542-0.297-0.94-0.838-1.765-1.096-2.718-0.27-1.057-0.244-2.088-0.257-3.157 0-0.502-0.644-0.515-0.812-0.103-0.773 1.907-0.451 5.115 1.211 6.52" fill="#1c1c1b"/></g><g transform="translate(191.57 142.7)"><path d="m0 0c0.296-0.631-0.619-1.172-0.941-0.554-0.76 1.469-1.572 2.771-2.77 3.917-0.258 0.245 0.09 0.709 0.387 0.491 1.327-1.019 2.59-2.32 3.324-3.854" fill="#1c1c1b"/></g><g transform="translate(183.76 189.6)"><path d="m0 0c0.013-0.516-0.58-0.645-0.915-0.387-0.554 0.439-0.863 1.173-1.404 1.637-0.593 0.516-1.314 0.837-2.062 1.03-0.528 0.143-0.438 1.032 0.129 0.98 0.992-0.103 1.881-0.438 2.68-1.031 0.683-0.502 1.533-1.327 1.572-2.229" fill="#1c1c1b"/></g><g transform="translate(182.89 188.04)"><path d="m0 0c0.206-0.515-0.58-0.785-0.863-0.36-0.618 0.953-1.353 1.61-2.538 1.687-0.439 0.027-0.426 0.645 0 0.671 1.378 0.103 2.873-0.671 3.401-1.998" fill="#1c1c1b"/></g><g transform="translate(180.29 232.24)"><path d="m0 0c0.593 0.58 1.43-0.283 0.902-0.889-1.25-1.443-3.415-2.088-5.257-1.739-0.49 0.09-0.361 0.863 0.116 0.863 1.752-0.026 3.002 0.554 4.239 1.765" fill="#1c1c1b"/></g><g transform="translate(179.34 234.47)"><path d="m0 0c0.502 0.193 0.966-0.593 0.541-0.94-2.229-1.805-5.76-2.333-8.542-2.205-0.503 0.027-0.49 0.735 0 0.761 1.481 0.09 2.937 0.31 4.355 0.76 1.288 0.413 2.396 1.134 3.646 1.624" fill="#1c1c1b"/></g><g transform="translate(167.61 96.223)"><path d="m0 0c0.245 0.761 1.301 0.438 1.173-0.322-0.232-1.456-0.877-2.873-1.328-4.278-0.128-0.361-0.631-0.206-0.567 0.167 0.22 1.456 0.284 3.029 0.722 4.433" fill="#1c1c1b"/></g><g transform="translate(166.08 95.476)"><path d="m0 0c0.296 0.503 1.198 0.168 0.966-0.412-0.67-1.701-1.25-3.183-1.301-5.038-0.013-0.541-0.799-0.529-0.825 0-0.051 1.816 0.206 3.865 1.16 5.45" fill="#1c1c1b"/></g><g transform="translate(153.57 117.82)"><path d="m0 0c0.064-1.727-1.417-2.899-2.951-3.324-1.61-0.439-4.458-0.335-4.355 1.932 0.091 1.869 1.933 2.938 3.35 3.801 0.271 0.155 0.323 0.451 0.232 0.696 0.258-0.18 0.606-0.193 0.928-0.089 0.116-0.156 0.284-0.272 0.541-0.31 1.366-0.206 2.204-1.34 2.255-2.706" fill="#f5f5f5"/></g><g transform="translate(165.36 251.67)"><path d="m0 0c0.464-5-1.198-8.439-3.994-10.669-5.618-4.497-15.836-4.162-22.717-2.074-0.167 0.038-0.283 0.141-0.361 0.258-0.296 0.45 0 1.249 0.657 1.159 4.82-0.67 9.587-2.126 14.496-1.147 6.417 1.25 11.03 6.043 10.154 12.872-0.735 5.837-4.445 11.352-10.566 12.228-5.283 0.748-10.167-1.778-14.702-4.11-0.348-0.181-0.644-0.026-0.786 0.219-0.477-0.09-1.082 0.206-1.108 0.838-0.271 8.078-0.953 16.196-0.889 24.262 0 0.116 0.039 0.206 0.103 0.271l0.283 0.18c0.271 0.065 0.593-0.051 0.645-0.373 1.211-7.912 1.366-16.081 1.533-24.07 5.515 3.492 12.318 6.237 18.735 3.492 2.242-0.954 4.059-2.603 5.437-4.613 1.766-2.577 2.797-5.721 3.08-8.723" fill="#1c1c1b"/></g><g transform="translate(67.61 211.21)"><path d="m0 0c0.734 0.077 0.734 1.082 0 1.146-1.83 0.194-3.763-0.039-5.592-0.116-0.58-0.025-0.58-0.888 0-0.915 1.829-0.064 3.762-0.296 5.592-0.115m1.327 2.28c0.554-0.064 0.799 0.851 0.283 1.082-1.443 0.632-3.221 0.529-4.754 0.245-0.567-0.103-0.438-1.095 0.142-1.017 1.52 0.192 2.835-0.129 4.329-0.31m13.543 50.561c0.656-0.129 0.927 0.812 0.283 0.992-1.495 0.426-2.693 1.096-3.621 2.372-0.283 0.399-0.928 0.051-0.67-0.4 0.838-1.443 2.345-2.667 4.008-2.964m0.154 1.585c0.502-0.154 0.812 0.477 0.49 0.838-0.799 0.876-1.843 1.456-2.629 2.383-0.838 0.993-1.353 2.075-1.92 3.222-0.219 0.451-0.838 0.129-0.747-0.309 0.438-2.268 2.487-5.438 4.806-6.134m73.51-8.697c0.361-0.425 1.108 0.142 0.786 0.618-0.67 0.967-1.74 1.74-2.771 2.281-0.425 0.219-0.785-0.386-0.373-0.644 0.979-0.619 1.623-1.366 2.358-2.255m0.799 2.113c0.399-0.335 1.005-0.013 0.876 0.515-0.542 2.372-4.072 3.479-6.159 2.913-0.49-0.129-0.4-0.928 0.129-0.916 1.056 0.026 2.049-0.077 2.989-0.579 0.928-0.49 1.404-1.276 2.165-1.933m6.648-6.984c0.876-6.829-3.736-11.622-10.153-12.872-4.91-0.979-9.677 0.477-14.496 1.147-0.657 0.09-0.954-0.709-0.657-1.159l-0.438-0.387c-0.412 0-0.838-0.258-0.799-0.748 0.631-9.316-0.232-17.884-1.172-27.11h-0.026c-8.517-0.18-16.983-0.065-25.487-0.078 2.538 5.786 3.827 11.958-0.168 17.46-3.71 5.128-10.488 8.865-16.918 8.234-5.063-0.491-9.664-3.647-11.197-8.608-1.959-6.326 1.121-12.627 4.69-17.729-9.599-0.58-19.353-0.104-28.889-0.89 1.92 9.767 1.856 20.745 0.426 30.576-0.051 0.374-0.374 0.568-0.709 0.58-0.09 0.323-0.412 0.58-0.812 0.4-4.947-2.268-10.166-3.917-15.642-4.123-3.325-0.116-6.932 0.18-9.496 2.59-2.075 1.932-2.436 5.72-2.461 8.337-0.155 14.457 17.781 12.923 26.092 6.687 0.747-0.554 1.52 0.335 1.25 1.043 0.039 0.052 0.064 0.104 0.09 0.168 2.538 10.128 2.358 21.467 1.714 31.826 8.182-0.966 16.75-1.301 24.997-1.031-3.337-4.973-4.523-11.338-0.761-16.505 3.428-4.704 9.445-7.087 15.179-6.585 11.584 0.992 17.808 14.29 11.172 23.657 8.684-0.992 17.691-1.095 26.401-1.224 0.116 0 0.219 0.013 0.323 0.052-0.065-0.065-0.104-0.155-0.104-0.271-0.064-8.066 0.619-16.184 0.889-24.262 0.026-0.632 0.632-0.928 1.109-0.838 0.141-0.245 0.438-0.4 0.785-0.219 4.536 2.332 9.42 4.857 14.703 4.11 6.12-0.876 9.831-6.391 10.565-12.228" fill="#f3af51"/></g><g transform="translate(157.82 259.57)"><path d="m0 0c0.129-0.528-0.477-0.851-0.876-0.515-0.761 0.657-1.237 1.443-2.165 1.932-0.94 0.503-1.933 0.606-2.989 0.58-0.529-0.013-0.619 0.786-0.129 0.915 2.087 0.567 5.617-0.541 6.159-2.912" fill="#1c1c1b"/></g><g transform="translate(156.93 257.56)"><path d="m0 0c0.322-0.477-0.425-1.043-0.786-0.618-0.735 0.889-1.379 1.636-2.358 2.255-0.412 0.258-0.052 0.863 0.373 0.644 1.031-0.541 2.101-1.314 2.771-2.281" fill="#1c1c1b"/></g><g transform="translate(70.458 199.87)"><path d="m0 0c0.361 1.92-2.023 3.055-3.608 2.951-1.675-0.103-3.144-1.508-3.092-3.247 0.064-1.83 1.726-2.758 3.35-2.899h0.026c0.038 0.219 0.167 0.425 0.399 0.541 1.211 0.542 2.641 1.185 2.925 2.654m48.628-20.294c1.997 10.27-6.326 18.8-16.261 19.122-0.631 0.026-0.979 0.464-1.069 0.941-8.981-0.078-17.099-4.098-19.405-13.659-2.642-10.914 6.185-18.451 16.261-19.842 9.239-1.277 18.619 3.865 20.474 13.438m9.136-84.681c0.09 0.078 0.18 0.117 0.271 0.155-5.09 13.194-8.337 27.381-10.914 41.258-0.657 3.518-1.25 7.048-1.766 10.591-0.347 2.32-0.206 8.092-1.391 9.935-1.482 2.307-6.739 2.435-11.957 2.049-0.245-0.219-0.632-0.258-0.915-0.077-3.853-0.323-7.577-0.864-9.574-0.954-2.628-5.489-2.371-12.705-2.925-18.683-0.541-5.773-1.018-11.559-1.43-17.344-0.181-2.642-2.1-35.498-0.58-35.279 0.348 0.052 0.645-0.052 0.876-0.233 2.204-0.025 4.987-0.308 6.727 0.297 3.298 1.147 2.937 5.282 3.04 8.363 0.193 5.876 0.181 11.725 0.09 17.6-0.012 0.8 0.658 1.148 1.276 1.083 0.039 0.013 0.064 0.038 0.116 0.038 5.695 0.954 12.073 3.596 13.903-3.156 1.134-4.175 2.049-8.389 3.505-12.46 0.657-1.843 1.365-5.824 3.028-6.984 3.298-2.32 6.391 1.869 8.62 3.801m-1.868 107.73c1.636-0.516 3.131 0.773 2.796 2.5-0.31 1.623-1.92 2.602-3.505 2.384-1.585-0.206-2.706-1.676-2.422-3.274 0.206-1.172 1.043-1.739 2.023-2.061 0.18 0.374 0.554 0.631 1.108 0.451m12.305 35.537c1.108-9.058 0.992-19.057-1.74-27.832-0.064-0.193-0.206-0.296-0.373-0.335-0.078-0.348-0.348-0.67-0.799-0.708-2.384-0.143-4.768-0.258-7.177-0.322 1.637-0.89 2.783-2.577 2.693-4.562-0.09-1.894-1.546-3.517-3.311-3.904 5.27-16.493 3.917-37.367-10.116-49.17 0.155-1.997 0.194-3.853 0.374-4.999 2.667-17.446 7.486-34.043 12.383-50.936 0.167-0.553-0.091-0.94-0.464-1.133 0.064-0.323 0-0.658-0.309-0.954-2.603-2.422-5.695-5.437-9.174-6.404-0.4-0.115-0.838 0-1.122 0.297-3.414 3.362-5.064 9.573-6.403 14.045-0.799 2.654-1.005 7.422-2.487 9.638-1.843 2.783-7.28 1.404-10.553 1.121 0.103-4.639 0.103-9.278 0-13.929-0.078-3.17 0.58-8.285-0.606-11.249-1.533-3.865-7.886-2.706-11.725-2.23-0.052-0.025-0.09-0.063-0.155-0.089-3.556-1.199-3.904 2.358-3.878 5.05 0.077 9.098 0.682 18.233 1.275 27.304 0.606 9.51 1.405 19.006 2.371 28.489 0.194 1.972 0.194 4.407 0.49 6.752-8.028 1.16-14.908 6.339-18.812 13.413-4.781 8.672-3.943 20.165-3.119 29.727-2.01 0.025-3.865 1.829-4.084 3.878-0.297 2.706 1.726 5.206 4.393 5.605 0.271 0.038 0.542 0.065 0.812 0.065 2.436 0 5.09-1.547 5.386-4.098 0.297-2.538-2.01-4.896-4.432-5.179h-0.039c-0.051 0-0.09 0.012-0.142 0.012 0.117-8.439-1.417-17.897 1.624-25.951 3.144-8.336 10.36-13.619 18.619-16.157 0.425 2.203 1.224 4.225 2.874 5.54 0.115 0.297 0.36 0.541 0.76 0.593 3.105 0.347 6.236 0.619 9.354 0.85-0.154 1.044-0.206 2.165-0.167 3.196-0.812 0.012-1.624 0.064-2.436 0.167-10.798 1.417-20.397 9.316-18.632 20.913 1.611 10.617 12.074 19.392 22.846 16.299 0.064 0.013 0.103 0.039 0.167 0.027 10.721-0.362 19.702-8.827 18.774-19.934-0.85-10.024-9.148-16.686-18.555-17.408-0.012-0.631-0.064-1.275-0.103-1.894-0.025-0.413-0.038-0.825-0.077-1.224 1.16 0.077 2.332 0.18 3.492 0.258 2.293 0.154 5.528 1.069 7.744 0.012 2.268-1.069 3.131-4.239 3.53-7.447 4.703 6.133 8.595 12.344 10.231 20.165 1.946 9.277-0.464 17.652-1.791 26.763-0.013 0.09 0 0.154 0 0.231-2.319-0.631-4.716 1.47-4.922 3.815-0.168 1.907 0.812 3.607 2.319 4.549-4.793-0.014-9.599 0.154-14.328 0.618-0.476 0.038-0.657 0.437-0.593 0.786-0.103 0.193-0.141 0.425-0.012 0.695 2.628 5.824 3.981 12.035-0.542 17.317-3.234 3.763-8.362 6.65-13.388 6.598-5.604-0.064-10.591-3.775-11.325-9.458-0.696-5.425 2.28-10.359 4.664-14.973 0.167-0.321-0.051-0.656-0.335-0.772 0.142-0.464-0.039-1.057-0.58-1.121-6.403-0.645-13.258-1.302-19.933-1.198-3.183 0.051-6.314 0.27-9.342 0.747-0.271 0.052-0.451 0.27-0.515 0.503-0.322 0.038-0.644 0.283-0.632 0.643 0.31 10.193 0.632 20.05 0.181 30.242-6.211-3.544-14.548-5.824-21.609-4.02-5.824 1.494-7.692 6.777-7.718 12.292-0.09 15.321 18.374 15.192 28.128 8.492 0.323 10.514 1.482 20.822 1.044 31.401-0.013 0.412 0.219 0.657 0.503 0.734 0.103 0.116 0.244 0.206 0.45 0.206 8.956 0.116 18.13-0.116 27.072-0.657 0.889-0.052 0.877-1.185 0.194-1.469-2.951-5.566-4.613-11.919 0.296-17.008 3.427-3.556 8.697-5.128 13.529-4.355 9.987 1.585 14.741 13.568 8.363 21.466-0.438 0.541-0.09 1.199 0.412 1.392 0.09 0.116 0.245 0.206 0.451 0.219 9.071 0.387 18.465-0.258 27.523-0.85 0.799-0.052 0.928-0.967 0.502-1.405l-0.283-0.18c-0.103-0.039-0.207-0.052-0.322-0.052-8.711 0.129-17.718 0.232-26.402 1.224 6.636-9.367 0.413-22.665-11.171-23.657-5.734-0.503-11.751 1.881-15.179 6.584-3.762 5.167-2.577 11.533 0.76 16.506-8.247-0.27-16.815 0.065-24.997 1.031 0.644-10.359 0.825-21.698-1.714-31.826-0.025-0.065-0.051-0.116-0.09-0.168 0.271-0.709-0.503-1.597-1.25-1.044-8.311 6.237-26.247 7.77-26.092-6.687 0.025-2.616 0.386-6.404 2.461-8.337 2.564-2.409 6.172-2.706 9.496-2.589 5.477 0.206 10.695 1.855 15.643 4.123 0.399 0.18 0.721-0.077 0.812-0.4 0.335-0.012 0.657-0.206 0.708-0.58 1.43-9.831 1.495-20.809-0.425-30.576 9.535 0.786 19.289 0.31 28.888 0.89-3.569 5.102-6.648 11.403-4.69 17.729 1.534 4.961 6.134 8.117 11.197 8.608 6.43 0.63 13.208-3.106 16.919-8.234 3.994-5.502 2.705-11.674 0.167-17.46 8.504 0.013 16.97-0.102 25.487 0.077h0.026c0.94 9.227 1.804 17.795 1.172 27.111-0.038 0.49 0.387 0.748 0.799 0.748 0.387 0 0.76-0.206 0.812-0.632" fill="#1c1c1b"/></g><g transform="translate(129.15 205.13)"><path d="m0 0c0.335-1.727-1.16-3.016-2.796-2.5-0.554 0.181-0.928-0.077-1.108-0.451-0.98 0.322-1.817 0.889-2.023 2.061-0.284 1.598 0.837 3.068 2.422 3.274 1.585 0.219 3.195-0.761 3.505-2.384" fill="#f5f5f5"/></g><g transform="translate(122.8 94.899)"><path d="m0 0c0.258-0.58-0.541-1.096-0.863-0.516-0.773 1.379-1.688 2.745-2.281 4.201-0.309 0.748 0.876 1.185 1.263 0.542 0.773-1.315 1.276-2.835 1.881-4.227" fill="#1c1c1b"/></g><g transform="translate(121.33 92.528)"><path d="m0 0c0.077-0.451-0.49-0.722-0.748-0.322-0.541 0.863-0.914 1.843-1.314 2.77-0.36 0.812-0.773 1.611-0.876 2.5-0.077 0.644 0.799 0.722 1.095 0.296 0.516-0.722 0.735-1.649 1.018-2.473 0.297-0.916 0.658-1.831 0.825-2.771" fill="#1c1c1b"/></g><g transform="translate(91.809 145.4)"><path d="m0 0c0.167 0.734 1.275 0.425 1.108-0.297-0.219-1.017-0.554-2.01-0.812-3.015-0.141-0.542-0.94-0.309-0.837 0.232 0.193 1.031 0.322 2.074 0.541 3.08" fill="#1c1c1b"/></g><g transform="translate(92.646 173.63)"><path d="m0 0c0.619-0.257 0.399-1.211-0.283-1.03-1.315 0.36-2.448 1.379-3.196 2.486-0.257 0.387 0.361 0.851 0.645 0.49 0.772-0.967 1.7-1.495 2.834-1.946" fill="#1c1c1b"/></g><g transform="translate(91.371 171.94)"><path d="m0 0c0.554-0.206 0.335-1.057-0.245-0.889-2.371 0.658-4.613 2.641-5.527 4.922-0.143 0.361 0.412 0.541 0.592 0.258 1.314-2.113 2.847-3.428 5.18-4.291" fill="#1c1c1b"/></g><g transform="translate(91.113 144.8)"><path d="m0 0c0.103-1.547-0.296-3.338-0.631-4.845-0.091-0.386-0.632-0.271-0.644 0.077-0.078 1.572-0.129 3.389 0.244 4.91 0.142 0.605 0.992 0.424 1.031-0.142" fill="#1c1c1b"/></g><g transform="translate(83.124 266.48)"><path d="m0 0c0.322-0.36 0.013-0.992-0.49-0.837-2.319 0.695-4.368 3.865-4.806 6.133-0.09 0.438 0.528 0.76 0.748 0.309 0.567-1.147 1.082-2.229 1.92-3.221 0.785-0.928 1.829-1.508 2.628-2.384" fill="#1c1c1b"/></g><g transform="translate(82.763 265.05)"><path d="m0 0c0.645-0.18 0.374-1.121-0.283-0.992-1.663 0.296-3.17 1.52-4.008 2.964-0.257 0.45 0.387 0.799 0.67 0.399 0.928-1.276 2.126-1.946 3.621-2.371" fill="#1c1c1b"/></g><g transform="translate(66.85 202.83)"><path d="m0 0c1.585 0.104 3.969-1.031 3.608-2.951-0.284-1.469-1.714-2.112-2.925-2.654-0.232-0.116-0.361-0.322-0.399-0.541h-0.026c-1.624 0.141-3.286 1.069-3.35 2.899-0.052 1.739 1.417 3.143 3.092 3.247" fill="#f5f5f5"/></g><g transform="translate(69.221 214.58)"><path d="m0 0c0.516-0.231 0.271-1.146-0.283-1.082-1.495 0.181-2.809 0.502-4.33 0.31-0.579-0.079-0.708 0.914-0.141 1.017 1.533 0.283 3.311 0.387 4.754-0.245" fill="#1c1c1b"/></g><g transform="translate(67.61 212.36)"><path d="m0 0c0.734-0.064 0.734-1.069 0-1.146-1.83-0.181-3.763 0.05-5.592 0.115-0.58 0.026-0.58 0.889 0 0.915 1.829 0.077 3.762 0.309 5.592 0.116" fill="#1c1c1b"/></g><g transform="translate(369.46 255.46)"><path d="m0 0c0.464-5-1.198-8.427-3.995-10.669-5.617-4.484-15.849-4.162-22.716-2.074-0.168 0.052-0.284 0.154-0.361 0.27-0.296 0.452 0 1.25 0.644 1.16 4.832-0.67 9.6-2.126 14.509-1.16 6.417 1.263 11.017 6.056 10.153 12.886-0.734 5.837-4.445 11.351-10.565 12.214-5.283 0.761-10.167-1.765-14.702-4.097-0.362-0.193-0.645-0.026-0.786 0.219-0.477-0.09-1.082 0.193-1.109 0.837-0.27 8.067-0.953 16.197-0.888 24.263 0 0.116 0.038 0.193 0.102 0.271l0.284 0.18c0.271 0.065 0.593-0.051 0.644-0.373 1.212-7.912 1.366-16.081 1.52-24.07 5.529 3.492 12.319 6.237 18.748 3.492 2.243-0.953 4.059-2.616 5.438-4.626 1.766-2.564 2.796-5.721 3.08-8.723" fill="#1c1c1b"/></g><g transform="translate(238.76 256.82)"><path d="m0 0c0.425 0.348-0.026 1.146-0.554 0.94-1.985-0.785-3.092-3.182-2.964-5.218 0.039-0.593 0.89-0.593 0.915 0 0.129 1.959 1.186 3.08 2.603 4.278m2.307-0.619c0.605 0.142 0.489 1.134-0.155 1.096-1.946-0.116-3.363-2.126-3.003-4.008 0.091-0.502 0.89-0.386 0.877 0.116-0.052 1.431 0.914 2.487 2.281 2.796m24.764-39.737c0.156 1.675 0.323 3.466 0.206 5.153-0.05 0.838-1.249 0.838-1.3 0-0.117-1.687 0.051-3.478 0.206-5.153 0.051-0.58 0.85-0.58 0.888 0m2.951 5.579c0.039 0.799-1.262 1.005-1.43 0.194-0.296-1.444-0.335-3.016-0.4-4.485-0.025-0.631 0.993-0.786 1.121-0.154 0.31 1.443 0.645 2.976 0.709 4.445m41.285 45.368c2.499 0.245 5.192 2.591 4.818 5.309-0.103 0.786-1.134 0.799-1.224 0-0.232-2.177-1.391-4.033-3.711-4.42-0.502-0.077-0.386-0.94 0.117-0.889m5.424 0.555c1.469 0.618 3.119 2.345 2.873 4.071-0.077 0.529-0.902 0.58-1.133 0.142-0.323-0.593-0.4-1.263-0.761-1.842-0.387-0.606-0.914-1.096-1.521-1.456-0.618-0.361-0.077-1.173 0.542-0.915m48.293-20.269c0.065 0.477-0.476 0.902-0.863 0.502l-0.013-0.012c-0.168 0.245-0.451 0.399-0.786 0.18-0.386-0.257-0.657-0.631-1.056-0.888-0.4-0.245-0.851-0.401-1.327-0.464-0.593-0.104-0.439-1.057 0.141-1.044 0.335 0 0.722 0.064 1.096 0.154-0.104-0.077-0.194-0.167-0.31-0.231-1.044-0.593-2.177-0.748-3.363-0.632-0.477 0.052-0.566-0.709-0.103-0.838 2.229-0.579 6.185 0.593 6.584 3.273m3.905 8.183c0.863-6.83-3.737-11.623-10.154-12.886-4.909-0.966-9.676 0.49-14.508 1.159-0.645 0.091-0.941-0.708-0.645-1.159l-0.437-0.386c-0.414 0-0.838-0.258-0.799-0.747 0.631-9.317-0.233-17.898-1.173-27.111h-0.026c-8.517-0.18-16.996-0.064-25.499-0.077 2.55 5.785 3.839 11.957-0.156 17.446-3.723 5.128-10.488 8.878-16.918 8.246-5.063-0.502-9.664-3.659-11.197-8.607-1.958-6.326 1.121-12.627 4.69-17.73-9.599-0.58-19.353-0.103-28.901-0.889 1.933 9.755 1.868 20.745 0.439 30.577-0.052 0.373-0.374 0.566-0.709 0.579-0.09 0.322-0.413 0.58-0.812 0.4-4.948-2.268-10.18-3.917-15.643-4.124-2.332-0.077-4.819 0.04-6.971 0.955-0.914 0.386-1.778 0.915-2.538 1.623-2.062 1.946-2.423 5.734-2.448 8.349-0.168 14.458 17.782 12.924 26.092 6.688 0.747-0.567 1.521 0.335 1.25 1.044 0.038 0.038 0.065 0.103 0.09 0.167 2.538 10.115 2.358 21.466 1.714 31.826 8.169-0.966 16.751-1.314 24.984-1.03-3.337-4.974-4.509-11.339-0.747-16.506 3.427-4.703 9.445-7.087 15.179-6.585 11.583 0.992 17.807 14.29 11.171 23.657 8.684-0.992 17.691-1.095 26.402-1.224 0.115-0.012 0.219 0.013 0.321 0.052-0.064-0.078-0.102-0.155-0.102-0.271-0.065-8.066 0.618-16.196 0.889-24.263 0.026-0.644 0.631-0.927 1.108-0.837 0.142-0.245 0.425-0.412 0.786-0.219 4.535 2.332 9.419 4.858 14.702 4.097 6.12-0.863 9.831-6.378 10.566-12.214" fill="#ea6b72"/></g><g transform="translate(362.92 248.2)"><path d="m0 0c0.387 0.399 0.928-0.025 0.863-0.502-0.399-2.681-4.355-3.852-6.584-3.273-0.464 0.129-0.374 0.889 0.103 0.837 1.185-0.116 2.319 0.04 3.363 0.632 0.116 0.065 0.206 0.155 0.31 0.232-0.374-0.09-0.761-0.155-1.096-0.155-0.58-0.012-0.734 0.941-0.142 1.044 0.477 0.064 0.928 0.219 1.328 0.464 0.399 0.257 0.669 0.631 1.056 0.889 0.335 0.219 0.618 0.064 0.786-0.181z" fill="#1c1c1b"/></g><g transform="translate(342.76 241.97)"><path d="m0 0c1.108-9.059 0.979-19.058-1.739-27.832-0.065-0.193-0.207-0.297-0.374-0.335-0.09-0.349-0.361-0.684-0.812-0.709-8.775-0.541-17.833-0.632-26.595 0.206-0.477 0.052-0.657 0.451-0.592 0.799-0.117 0.193-0.143 0.425-0.027 0.696 2.629 5.823 3.994 12.022-0.541 17.318-3.221 3.762-8.349 6.648-13.375 6.584-5.604-0.065-10.591-3.763-11.326-9.445-0.695-5.425 2.269-10.36 4.665-14.972 0.167-0.323-0.052-0.658-0.335-0.774 0.142-0.464-0.039-1.057-0.593-1.121-9.432-0.966-19.869-1.92-29.275-0.451-0.258 0.039-0.437 0.258-0.502 0.503-0.322 0.039-0.644 0.283-0.632 0.644 0.31 10.179 0.632 20.049 0.181 30.242-6.211-3.544-14.547-5.825-21.609-4.021-0.116 0.026-0.219 0.064-0.335 0.104 0 0.231-0.013 0.463-0.025 0.695-0.013 0.206-0.104 0.361-0.232 0.451-0.091 0.258-0.323 0.464-0.58 0.554l0.167 0.413c2.152-0.915 4.639-1.031 6.971-0.954 5.463 0.206 10.695 1.855 15.643 4.124 0.399 0.179 0.722-0.078 0.811-0.401 0.335-0.012 0.658-0.206 0.709-0.579 1.43-9.832 1.495-20.822-0.438-30.577 9.548 0.786 19.302 0.31 28.901 0.89-3.569 5.102-6.648 11.403-4.69 17.729 1.533 4.948 6.134 8.106 11.197 8.608 6.43 0.632 13.194-3.118 16.918-8.246 3.995-5.49 2.706-11.662 0.155-17.447 8.504 0.013 16.983-0.103 25.499 0.077h0.027c0.94 9.213 1.804 17.794 1.173 27.111-0.039 0.489 0.385 0.747 0.798 0.747 0.386 0 0.76-0.206 0.812-0.631" fill="#1c1c1b"/></g><g transform="translate(339.53 291.15)"><path d="m0 0c0.799-0.052 0.928-0.954 0.503-1.392l-0.284-0.18c-0.103-0.039-0.206-0.064-0.322-0.052-8.71 0.129-17.717 0.232-26.402 1.225 6.636-9.368 0.412-22.665-11.171-23.658-5.734-0.502-11.752 1.882-15.178 6.585-3.763 5.167-2.59 11.532 0.747 16.506-8.234-0.284-16.816 0.064-24.985 1.03 0.645-10.359 0.824-21.711-1.714-31.826-0.025-0.064-0.051-0.129-0.09-0.167 0.271-0.709-0.502-1.611-1.25-1.044-8.31 6.236-26.259 7.77-26.092-6.688 0.026-2.615 0.386-6.403 2.448-8.349 0.761-0.708 1.624-1.237 2.539-1.623l-0.168-0.413c-0.245 0.09-0.541 0.064-0.799-0.155-0.232-0.193-0.464-0.373-0.708-0.541-3.737 2.216-5.026 6.611-5.052 11.184-0.025 5.631 2.449 9.175 6.082 11.069 0.31-0.052 0.645 0.064 0.773 0.374l0.013 0.012c6.237 2.745 15.359 1.096 21.274-2.976 0.322 10.527 1.482 20.835 1.043 31.414-0.013 0.413 0.207 0.644 0.503 0.722 0.103 0.129 0.245 0.206 0.438 0.218 8.956 0.117 18.142-0.115 27.072-0.656 0.902-0.052 0.888-1.186 0.206-1.47-2.95-5.566-4.626-11.918 0.297-17.021 3.426-3.556 8.697-5.115 13.529-4.342 9.985 1.585 14.727 13.555 8.362 21.466-0.438 0.542-0.091 1.186 0.4 1.392 0.102 0.116 0.257 0.207 0.451 0.219 9.084 0.387 18.464-0.27 27.535-0.863" fill="#1c1c1b"/></g><g transform="translate(318.37 272.03)"><path d="m0 0c0.245-1.727-1.404-3.453-2.873-4.072-0.619-0.258-1.16 0.554-0.542 0.915 0.606 0.361 1.134 0.85 1.52 1.456 0.362 0.58 0.439 1.25 0.761 1.843 0.232 0.438 1.057 0.386 1.134-0.142" fill="#1c1c1b"/></g><g transform="translate(314.89 272.72)"><path d="m0 0c0.374-2.719-2.319-5.064-4.818-5.309-0.503-0.051-0.619 0.812-0.117 0.889 2.32 0.387 3.479 2.242 3.711 4.42 0.09 0.799 1.121 0.786 1.224 0" fill="#1c1c1b"/></g><g transform="translate(267.36 222.23)"><path d="m0 0c0.168 0.812 1.469 0.605 1.431-0.193-0.065-1.469-0.4-3.002-0.709-4.446-0.129-0.632-1.147-0.476-1.121 0.155 0.064 1.468 0.103 3.041 0.399 4.484" fill="#1c1c1b"/></g><g transform="translate(266.04 221.61)"><path d="m0 0c0.116-1.687-0.051-3.479-0.206-5.153-0.038-0.58-0.837-0.58-0.889 0-0.154 1.674-0.322 3.466-0.206 5.153 0.052 0.838 1.25 0.838 1.301 0" fill="#1c1c1b"/></g><g transform="translate(240.92 257.29)"><path d="m0 0c0.644 0.039 0.76-0.954 0.155-1.095-1.366-0.309-2.333-1.366-2.281-2.796 0.013-0.503-0.786-0.619-0.876-0.116-0.361 1.881 1.056 3.891 3.002 4.007" fill="#1c1c1b"/></g><g transform="translate(238.92 240.1)"><path d="m0 0c0.013-0.231 0.025-0.464 0.025-0.695-0.335 0.09-0.67 0.193-0.979 0.335-0.489 0.18-0.941 0.412-1.365 0.67 0.244 0.168 0.476 0.347 0.708 0.541 0.258 0.218 0.554 0.245 0.799 0.154 0.258-0.09 0.49-0.296 0.58-0.554 0.128-0.09 0.219-0.245 0.232-0.451" fill="#1c1c1b"/></g><g transform="translate(238.21 257.76)"><path d="m0 0c0.528 0.206 0.979-0.593 0.554-0.94-1.417-1.199-2.474-2.32-2.603-4.278-0.025-0.593-0.876-0.593-0.914 0-0.129 2.035 0.979 4.432 2.963 5.218" fill="#1c1c1b"/></g><g transform="translate(238.4 263.04)"><path d="m0 0c-0.129-0.31-0.464-0.425-0.773-0.374 0.257 0.142 0.515 0.258 0.773 0.374" fill="#1c1c1b"/></g><g transform="translate(291.93 211.59)"><path d="m0 0c1.134 1.289 0.438 3.351-0.979 4.085-1.611 0.851-3.724 0.309-4.806-1.096-1.327-1.714-0.439-3.723 1.52-4.29 0.09-0.026 0.142-0.091 0.206-0.155 1.379 0.348 3.041 0.283 4.059 1.456m46.734-115.22c0.606 0.167 5.67 1.997 5.438 2.706-0.09 0.271-0.039 0.516 0.09 0.722-6.584 12.859-9.908 26.878-11.3 41.245-0.774 8.079 0.025 16.442-0.941 24.443-0.451 3.789-0.837 4.02-4.471 4.561-1.958 0.284-4.265-0.167-6.224-0.257-4.51-0.22-9.032-0.683-13.555-0.477 0.04-0.155 0.04-0.335-0.012-0.541-3.57-12.254-6.186-24.585-6.971-37.368-0.748-12.008 0.606-23.682 1.34-35.639 2.486 0.451 5.244-0.052 7.641 0.721 1.391 0.452 3.182 1.134 3.659 2.822 0.322 1.198-0.438 3.415-0.606 4.69-0.67 5.038-1.597 10.089-1.92 15.153 0 0.026 0.013 0.051 0.013 0.078-0.231 0.437-0.09 1.133 0.49 1.288 3.749 0.992 11.377 4.832 13.761 0.091 1.83-3.661 2.307-8.35 3.44-12.254 1.276-4.369 2.887-8.492 5.258-12.37 0.077-0.129 0.115-0.258 0.142-0.387 1.598 0.103 3.182 0.322 4.728 0.773m15.939 36.993c1.624 0.915 2.835 3.222 1.727 4.949-1.005 1.571-2.435 1.121-3.956 1.043-0.154 0-0.297 0.039-0.412 0.116-1.649-0.76-2.976-2.474-2.345-4.342 0.721-2.101 3.169-2.797 4.986-1.766m3.918 5.322c1.198-2.963-0.761-6.326-3.557-7.499-3.028-1.276-6.61 0.412-7.461 3.621-0.541 2.074 0.323 4.148 1.882 5.346-0.026 0.065-0.064 0.117-0.077 0.194-1.392 8.156-6.288 18.361-14.677 21.415-0.154-1.984-0.347-3.853-0.322-5.166 0.477-19.702 3.196-39.442 12.576-57.043 0.439-0.824-0.181-1.585-0.876-1.714-0.786-1.186-2.835-2.113-3.84-2.564-3.066-1.392-6.442-1.907-9.766-1.289-0.452 0.09-0.607 0.464-0.542 0.825-0.013 0.013-0.026 0.026-0.026 0.039-3.182 5.012-4.909 10.54-6.442 16.248-0.439 1.675-0.863 3.376-1.327 5.051-0.619 2.294-0.412 2.835-2.694 3.672-2.306 0.837-5.733-0.18-8.478-0.734 0.863-4.252 1.289-8.62 1.868-12.924 0.31-2.371 1.534-6.327 0.593-8.672-1.778-4.432-9.986-4.162-13.465-2.473-0.025 0.012-0.038 0.038-0.052 0.05-0.296-0.179-0.76-0.089-0.876 0.31-6.03 22.176-3.247 48.525 3.518 70.546-16.699 4.201-23.85 28.67-18.439 43.462-1.726 0.566-2.796 2.706-2.371 4.549 0.657 2.86 3.789 4.522 6.573 4.046 2.705-0.452 4.792-3.029 4.161-5.825-0.619-2.783-3.866-4.072-6.468-3.891-0.065 0-0.116 0.025-0.168 0.039-4.716-14.883 2.681-34.765 17.099-41.13 0.232 0.734 0.451 1.469 0.696 2.19 0.231 0.683 0.876 0.864 1.404 0.709 0.013 0.245 0.154 0.477 0.464 0.541 4.947 1.07 10.037 1.211 15.075 1.456 2.654 0.129 7.487 1.496 9.883-0.116 2.281-1.546 2.5-5.282 2.319-8.89 9.381-1.623 15.437-13.426 16.661-21.983 0.271 0.052 0.541 0.091 0.812 0.104 1.997 1.624 5.477-0.348 6.34-2.5" fill="#1c1c1b"/></g><g transform="translate(356.33 138.31)"><path d="m0 0c1.107-1.727-0.104-4.033-1.728-4.948-1.816-1.031-4.264-0.335-4.986 1.765-0.631 1.869 0.696 3.582 2.346 4.342 0.115-0.077 0.258-0.116 0.412-0.116 1.52 0.078 2.95 0.528 3.956-1.043" fill="#f5f5f5"/></g><g transform="translate(336.58 190.41)"><path d="m0 0c1.082 9.432-6.675 16.479-15.553 17.382-0.258 0.025-0.451 0.141-0.618 0.27-9.857 1.109-17.292-5.167-18.065-15.062-0.387-4.871 0.103-9.832 4.226-13.001 3.067-2.359 7.744-3.428 11.558-3.711 8.981-0.671 17.382 4.689 18.452 14.122m-15.553 19.533c10.141-0.141 19.16-9.328 17.937-19.701-1.366-11.609-12.152-17.55-22.988-15.926-12.086 1.791-17.614 8.891-15.655 21.157 1.52 9.561 10.449 16.674 20.088 14.277 0.154 0.116 0.36 0.193 0.618 0.193" fill="#1c1c1b"/></g><g transform="translate(338.13 99.359)"><path d="m0 0c0.438-0.477-0.245-1.146-0.709-0.709-1.353 1.263-2.268 3.157-2.551 4.974-0.052 0.348 0.4 0.477 0.516 0.142 0.593-1.753 1.481-3.067 2.744-4.407" fill="#1c1c1b"/></g><g transform="translate(335.65 98.831)"><path d="m0 0c0.309-0.593-0.528-1.069-0.89-0.516-1.237 1.92-2.28 4.021-3.376 6.043-0.218 0.401 0.362 0.736 0.606 0.349 1.237-1.933 2.564-3.853 3.66-5.876" fill="#1c1c1b"/></g><g transform="translate(310.13 202.59)"><path d="m0 0c0.566 0.091 1.018-0.683 0.425-1.005-0.774-0.412-1.469-0.824-1.675-1.765-0.091-0.413-0.747-0.322-0.734 0.103 0.025 0.645 0.257 1.34 0.67 1.868-0.387-0.231-0.787-0.476-1.122-0.824-0.657-0.683-1.108-1.533-1.417-2.423-0.168-0.45-0.941-0.412-0.889 0.116 0.129 1.121 0.567 2.126 1.275 3.002 0.645 0.786 1.689 1.779 2.758 1.805 0.477 0.013 0.734-0.619 0.399-0.954 0.104 0.026 0.194 0.064 0.31 0.077" fill="#1c1c1b"/></g><g transform="translate(306.23 152.86)"><path d="m0 0c0.258 0.632 1.288 0.387 1.057-0.296-0.297-0.902-0.761-1.726-1.173-2.577-0.168-0.348-0.696-0.091-0.606 0.258 0.219 0.876 0.387 1.764 0.722 2.615" fill="#1c1c1b"/></g><g transform="translate(305.19 153.05)"><path d="m0 0c0.36 0.412 1.082-0.013 0.915-0.528-0.245-0.747-0.644-1.417-0.786-2.203-0.168-0.903-0.116-1.843 0.077-2.732 0.116-0.49-0.554-0.644-0.747-0.206-0.709 1.713-0.773 4.213 0.541 5.669" fill="#1c1c1b"/></g><g transform="translate(290.95 215.67)"><path d="m0 0c1.418-0.734 2.113-2.796 0.979-4.085-1.017-1.173-2.679-1.108-4.058-1.456-0.065 0.064-0.116 0.129-0.206 0.155-1.959 0.567-2.848 2.576-1.521 4.29 1.082 1.405 3.196 1.947 4.806 1.096" fill="#f5f5f5"/></g></g></g></svg>
